<?xml version="1.0" encoding="UTF-8" standalone="no"?>
<!DOCTYPE svg PUBLIC "-//W3C//DTD SVG 1.1//EN" "http://www.w3.org/Graphics/SVG/1.1/DTD/svg11.dtd">
<svg version="1.1" xmlns="http://www.w3.org/2000/svg" xmlns:xlink="http://www.w3.org/1999/xlink" preserveAspectRatio="xMidYMid meet" viewBox="0 0 640 640" width="640" height="640"><defs><path d="M149.54 264L447.49 264L447.49 288.07L149.54 288.07L149.54 264Z" id="b1sElmi4km"></path><path d="M149.54 240.71L447.49 240.71L447.49 264.78L149.54 264.78L149.54 240.71Z" id="e2mPbbsq67"></path><path d="M149.54 288.07L447.49 288.07L447.49 312.15L149.54 312.15L149.54 288.07Z" id="a1RgqWA2zu"></path><path d="M149.54 216.63L447.49 216.63L447.49 240.71L149.54 240.71L149.54 216.63Z" id="f6ZtjfBP9G"></path><path d="M149.54 119.99L447.49 119.99L447.49 144.07L149.54 144.07L149.54 119.99Z" id="abb1jEKGg"></path><path d="M149.54 192.22L447.49 192.22L447.49 216.29L149.54 216.29L149.54 192.22Z" id="bHPThySMD"></path><path d="M149.54 144.07L447.49 144.07L447.49 168.14L149.54 168.14L149.54 144.07Z" id="c1mOS2qlXi"></path><path d="M149.54 168.14L447.49 168.14L447.49 192.22L149.54 192.22L149.54 168.14Z" id="c4ceG8gpnW"></path><path d="M287.92 132.11C260.27 137.6 237.09 156.35 225.94 182.24C193.07 178.45 163.35 202.03 159.56 234.91C155.77 267.78 179.35 297.51 212.23 301.29C214.47 301.55 216.73 301.68 218.99 301.69C235.26 301.69 365.36 301.69 381.63 301.69C409.99 301.72 433.01 278.75 433.05 250.39C433.08 224.66 414.06 202.87 388.56 199.43C379.36 153.05 334.3 122.91 287.92 132.11ZM372.66 208.47C373.14 212.83 376.83 216.11 381.22 216.09C381.26 216.09 381.59 216.09 381.63 216.09C400.54 216.09 415.86 231.43 415.86 250.34C415.85 269.25 400.52 284.57 381.61 284.57C365.35 284.57 235.25 284.57 218.99 284.57C195.35 284.55 176.2 265.38 176.21 241.75C176.23 218.11 195.4 198.96 219.03 198.97C222.51 198.97 225.97 199.39 229.35 200.23C233.7 201.32 238.15 198.86 239.55 194.6C248.83 166.55 275.05 147.61 304.59 147.61C339.47 147.6 368.78 173.81 372.66 208.47Z" id="a1sfFcS6U2"></path></defs><g><g><g><g><g><use xlink:href="#b1sElmi4km" opacity="1" fill="#8f9092" fill-opacity="1"></use><g><use xlink:href="#b1sElmi4km" opacity="1" fill-opacity="0" stroke="#000000" stroke-width="1" stroke-opacity="1"></use></g></g><g><use xlink:href="#e2mPbbsq67" opacity="1" fill="#8f9092" fill-opacity="1"></use><g><use xlink:href="#e2mPbbsq67" opacity="1" fill-opacity="0" stroke="#000000" stroke-width="1" stroke-opacity="1"></use></g></g><g><use xlink:href="#a1RgqWA2zu" opacity="1" fill="#8f9092" fill-opacity="1"></use><g><use xlink:href="#a1RgqWA2zu" opacity="1" fill-opacity="0" stroke="#000000" stroke-width="1" stroke-opacity="1"></use></g></g><g><use xlink:href="#f6ZtjfBP9G" opacity="1" fill="#8f9092" fill-opacity="1"></use><g><use xlink:href="#f6ZtjfBP9G" opacity="1" fill-opacity="0" stroke="#000000" stroke-width="1" stroke-opacity="1"></use></g></g><g><use xlink:href="#abb1jEKGg" opacity="1" fill="#8f9092" fill-opacity="1"></use><g><use xlink:href="#abb1jEKGg" opacity="1" fill-opacity="0" stroke="#000000" stroke-width="1" stroke-opacity="1"></use></g></g><g><use xlink:href="#bHPThySMD" opacity="1" fill="#8f9092" fill-opacity="1"></use><g><use xlink:href="#bHPThySMD" opacity="1" fill-opacity="0" stroke="#000000" stroke-width="1" stroke-opacity="1"></use></g></g><g><use xlink:href="#c1mOS2qlXi" opacity="1" fill="#8f9092" fill-opacity="1"></use><g><use xlink:href="#c1mOS2qlXi" opacity="1" fill-opacity="0" stroke="#000000" stroke-width="1" stroke-opacity="1"></use></g></g><g><use xlink:href="#c4ceG8gpnW" opacity="1" fill="#8f9092" fill-opacity="1"></use><g><use xlink:href="#c4ceG8gpnW" opacity="1" fill-opacity="0" stroke="#000000" stroke-width="1" stroke-opacity="1"></use></g></g></g><g><use xlink:href="#a1sfFcS6U2" opacity="1" fill="#000000" fill-opacity="1"></use><g><use xlink:href="#a1sfFcS6U2" opacity="1" fill-opacity="0" stroke="#000000" stroke-width="1" stroke-opacity="0"></use></g></g></g></g></g></svg>